<!DOCTYPE svg PUBLIC "-//W3C//DTD SVG 20010904//EN" "http://www.w3.org/TR/2001/REC-SVG-20010904/DTD/svg10.dtd">
<svg version="1.0" xmlns="http://www.w3.org/2000/svg" width="2000px" height="2000px" viewBox="0 0 12000 12000" preserveAspectRatio="xMidYMid meet">
<g id="layer101" fill="#dcdddf" stroke="none">
 <path d="M8340 8942 c0 -6 37 -77 81 -159 105 -190 119 -224 119 -284 0 -58 -18 -99 -57 -127 l-27 -20 41 -53 c22 -30 48 -69 57 -87 10 -18 23 -35 31 -38 37 -15 85 51 85 117 0 94 -78 274 -223 513 -76 126 -107 166 -107 138z"/>
 <path d="M3976 8864 c-179 -43 -335 -199 -400 -399 -26 -80 -46 -213 -46 -304 0 -162 51 -418 126 -633 71 -203 214 -465 214 -392 0 11 -32 114 -70 229 -100 297 -119 430 -85 590 42 197 187 349 382 400 67 17 276 20 370 5 168 -28 359 -105 488 -199 194 -141 385 -385 465 -594 64 -167 90 -314 119 -688 10 -136 26 -174 79 -196 29 -12 51 -14 102 -7 128 16 210 11 265 -18 88 -46 159 -129 249 -291 48 -85 86 -124 155 -155 44 -20 60 -23 90 -16 53 13 81 61 81 137 0 50 -7 73 -46 152 -72 147 -72 251 1 269 41 10 55 -5 89 -95 36 -98 71 -129 141 -129 66 0 85 28 85 121 0 90 -24 171 -81 278 -84 157 -181 231 -301 231 -98 0 -136 -31 -157 -128 -19 -88 -13 -126 41 -292 l52 -160 -29 -30 c-33 -35 -66 -38 -92 -11 -10 11 -38 55 -62 98 -119 210 -208 321 -293 362 -39 19 -60 22 -115 18 -38 -2 -77 -7 -89 -11 -33 -12 -49 14 -68 111 -114 589 -366 1085 -721 1420 -191 182 -391 290 -605 329 -96 17 -258 16 -334 -2z"/>
 <path d="M5810 8849 c0 -6 34 -70 75 -143 113 -201 136 -256 136 -320 0 -30 -7 -68 -15 -85 -14 -26 -27 -38 -74 -67 -2 -1 20 -32 48 -68 27 -37 57 -80 65 -97 32 -62 88 -26 109 71 20 92 -84 332 -267 623 -58 91 -77 112 -77 86z"/>
 <path d="M8347 8264 c-32 -63 -83 -108 -164 -146 l-63 -30 48 -56 c27 -32 79 -100 117 -152 37 -52 69 -97 71 -99 2 -2 30 13 62 33 57 34 172 146 172 167 0 25 24 -2 106 -121 49 -71 91 -129 94 -130 13 -1 177 149 203 186 27 39 28 41 14 82 -27 79 -111 181 -215 265 -29 22 -27 22 -42 -15 -21 -52 -77 -124 -122 -157 -23 -17 -45 -31 -48 -31 -3 0 -25 28 -48 63 -22 34 -68 91 -100 127 l-59 65 -26 -51z"/>
 <path d="M5810 8141 c-28 -63 -80 -113 -168 -159 l-71 -37 57 -72 c31 -39 86 -112 122 -162 36 -50 70 -91 76 -91 14 0 120 74 163 114 18 17 44 48 57 69 14 21 29 35 34 32 5 -3 51 -65 101 -138 51 -73 94 -134 95 -135 6 -9 186 155 214 195 27 37 31 50 26 79 -13 67 -131 218 -222 284 l-43 31 -16 -38 c-23 -56 -86 -134 -137 -170 l-45 -32 -46 67 c-24 37 -74 100 -111 140 l-65 72 -21 -49z"/>
 <path d="M6930 7785 c0 -11 15 -22 190 -139 189 -126 258 -180 378 -299 173 -170 283 -343 366 -574 51 -143 106 -225 91 -135 -4 20 -20 91 -36 156 -47 196 -37 284 43 351 125 106 229 83 369 -80 86 -99 132 -136 195 -155 34 -10 48 -9 99 8 172 58 343 90 525 99 158 7 243 -3 447 -53 298 -72 445 -146 956 -481 296 -194 515 -308 575 -301 25 3 27 7 30 56 4 64 -18 142 -64 234 -40 79 -37 78 -253 160 -226 86 -391 179 -628 355 -160 119 -266 184 -448 273 -178 87 -330 142 -462 165 -123 22 -351 30 -442 16 -133 -21 -288 -100 -403 -207 -26 -24 -53 -44 -60 -44 -24 1 -55 34 -114 120 -155 228 -222 290 -316 290 -129 0 -227 -76 -276 -212 -9 -27 -19 -48 -22 -48 -5 0 -22 27 -109 166 -39 63 -92 119 -134 140 -17 9 -67 21 -110 25 -54 7 -117 24 -205 58 -139 54 -182 67 -182 56z"/>
 <path d="M6805 7443 c-90 -8 -295 -73 -295 -94 0 -5 17 -9 38 -9 66 0 223 -30 316 -61 199 -66 377 -220 436 -376 56 -151 80 -427 79 -936 0 -481 13 -549 131 -704 l53 -68 -7 40 c-24 158 -38 352 -32 475 6 143 -7 535 -24 710 -30 305 -103 553 -216 741 -86 143 -179 227 -287 261 -39 12 -150 24 -192 21z"/>
 <path d="M4620 7389 c-27 -59 -95 -118 -177 -156 -57 -26 -62 -33 -36 -54 9 -8 61 -75 116 -149 55 -74 103 -139 108 -144 11 -13 142 78 189 131 65 75 66 121 1 219 -36 55 -154 196 -169 202 -4 1 -18 -21 -32 -49z"/>
 <path d="M856 7322 c-3 -5 12 -14 32 -21 338 -119 569 -318 943 -811 68 -91 153 -196 189 -233 135 -144 293 -248 418 -277 49 -11 59 -19 114 -86 34 -41 64 -74 68 -74 4 0 14 7 21 17 46 55 330 141 619 187 221 35 625 52 850 35 63 -4 180 -13 260 -19 398 -29 857 -137 1233 -291 287 -118 733 -379 1054 -618 102 -76 117 -91 88 -91 -36 0 -74 -30 -84 -66 -14 -51 -4 -90 42 -159 124 -184 250 -327 357 -404 63 -45 66 -46 141 -46 68 0 79 3 113 29 46 35 70 87 62 135 -6 41 -13 49 -54 60 -27 8 -42 4 -103 -28 -64 -34 -76 -37 -112 -29 -67 15 -129 53 -168 102 -19 24 -19 27 -3 57 23 46 61 78 129 110 106 51 142 42 348 -85 99 -61 180 -106 192 -106 3 0 -5 15 -18 33 -14 17 -28 41 -31 53 -7 24 -122 109 -351 261 -150 99 -226 154 -485 354 -203 157 -440 324 -585 415 -28 17 -97 60 -155 96 -405 252 -777 399 -1310 518 -361 81 -396 84 -915 84 -428 0 -470 -1 -600 -22 -77 -12 -171 -31 -210 -42 -167 -48 -157 -47 -213 -6 -27 20 -69 43 -92 51 -41 15 -42 14 -98 -21 -31 -20 -75 -51 -96 -68 -37 -29 -45 -31 -115 -30 -169 3 -278 84 -489 364 -182 241 -209 275 -278 339 -76 71 -251 191 -331 227 -50 21 -302 101 -350 110 -12 2 -24 0 -27 -4z"/>
 <path d="M8123 6390 c-88 -23 -161 -60 -213 -106 -40 -36 -110 -161 -110 -195 0 -10 -4 -21 -10 -24 -13 -8 -13 -35 0 -35 6 0 34 15 63 34 89 59 148 71 342 70 135 0 189 -5 261 -21 277 -64 573 -226 959 -524 275 -212 369 -269 500 -304 62 -17 65 -19 65 -49 1 -75 82 -193 193 -283 40 -31 74 -58 76 -60 2 -1 -6 -14 -17 -28 -15 -19 -18 -32 -13 -53 21 -71 153 -296 191 -323 40 -29 139 -39 405 -39 296 0 295 0 295 84 0 43 -7 64 -37 114 -51 83 -131 163 -201 200 -67 35 -142 58 -352 107 -85 19 -190 47 -232 61 -87 29 -116 51 -52 41 187 -31 355 -32 401 -1 17 10 23 24 23 50 0 83 -88 192 -282 347 -167 133 -313 282 -418 425 -41 55 -76 99 -78 97 -14 -14 18 -87 78 -180 39 -60 70 -118 70 -130 0 -28 -33 -71 -70 -90 -62 -32 -170 -7 -272 63 -26 18 -113 88 -193 156 -471 400 -726 549 -1030 601 -119 20 -252 18 -342 -5z m2206 -1011 c50 -48 91 -94 91 -103 0 -9 -12 -19 -27 -23 -65 -16 -363 -4 -363 15 0 4 22 15 49 25 74 26 131 95 131 157 0 34 20 21 119 -71z"/>
 <path d="M1365 6385 c-64 -14 -192 -62 -200 -75 -3 -5 25 -11 62 -15 264 -25 438 -99 589 -249 115 -115 158 -213 185 -426 5 -41 14 -302 19 -580 10 -539 15 -599 63 -703 19 -41 112 -177 121 -177 1 0 -4 37 -12 83 -8 52 -16 242 -22 517 -10 519 -23 680 -72 909 -53 250 -174 499 -298 615 -107 100 -268 138 -435 101z"/>
 <path d="M6580 5960 c0 -24 155 -164 301 -271 321 -236 402 -298 499 -383 100 -88 173 -177 203 -246 15 -33 15 -34 16 -9 1 35 -68 173 -113 226 -55 63 -239 205 -466 358 -231 156 -312 216 -387 289 -29 28 -53 44 -53 36z"/>
 <path d="M3510 5650 c-179 -19 -423 -86 -559 -153 -109 -54 -165 -104 -185 -165 -41 -123 -30 -203 43 -315 104 -158 287 -294 618 -460 258 -129 319 -179 338 -279 9 -49 -15 -102 -98 -210 -37 -49 -67 -97 -67 -108 0 -41 86 -240 110 -255 28 -17 95 87 132 205 33 107 33 286 0 381 -58 170 -215 354 -344 406 -21 8 -38 18 -38 22 0 16 59 62 111 86 90 41 218 65 349 65 132 0 236 -14 511 -70 212 -43 348 -86 583 -187 206 -88 201 -86 381 -186 204 -115 359 -194 460 -237 73 -30 89 -33 185 -34 86 0 113 3 151 21 64 29 92 72 97 149 10 147 -83 325 -271 521 -275 287 -603 477 -1138 661 -162 56 -329 94 -549 124 -161 22 -680 34 -820 18z m876 -295 c389 -48 766 -166 1145 -355 199 -100 303 -173 445 -315 135 -134 201 -216 210 -263 9 -47 -26 -76 -108 -91 -153 -26 -191 -15 -448 139 -102 61 -207 122 -235 135 -574 274 -782 335 -1240 365 -322 21 -554 -40 -697 -182 l-57 -57 -169 84 c-178 90 -246 138 -268 192 -19 45 -18 57 12 92 79 95 347 197 639 246 227 37 525 41 771 10z"/>
 <path d="M9812 4774 c-33 -23 -62 -87 -62 -137 0 -56 40 -135 92 -182 46 -43 152 -95 188 -95 19 1 9 8 -37 30 -83 38 -131 76 -165 129 -46 73 -35 137 26 161 34 12 89 -10 112 -46 15 -22 16 -22 35 -3 28 28 48 24 92 -23 l39 -41 -7 43 c-15 88 -69 140 -127 124 -29 -9 -38 -6 -76 23 -48 36 -76 41 -110 17z"/>
 <path d="M3660 3585 c-17 -52 -95 -127 -173 -165 -37 -18 -67 -34 -67 -36 0 -3 26 -37 58 -77 32 -39 87 -111 121 -159 35 -49 66 -88 68 -88 18 0 149 99 183 137 64 73 65 119 7 211 -33 52 -166 210 -179 211 -3 1 -12 -15 -18 -34z"/>
 </g>

</svg>